HIERARCHY
ROOT Hips
{
	OFFSET 0.000000 0.000000 0.000000
	CHANNELS 6 Xposition Yposition Zposition Xrotation Yrotation Zrotation
	JOINT C_ctrl
	{
		OFFSET 0.000000 35.040482 -0.000011
		CHANNELS 3 Xrotation Yrotation Zrotation
		JOINT Bip01
		{
			OFFSET -41.537640 41.789009 -0.000007
			CHANNELS 3 Xrotation Yrotation Zrotation
			JOINT Bip01_Pelvis
			{
				OFFSET -2.462887 0.000000 0.000000
				CHANNELS 3 Xrotation Yrotation Zrotation
				JOINT BN_Tail_01
				{
					OFFSET -11.399368 7.351341 -0.000013
					CHANNELS 3 Xrotation Yrotation Zrotation
					JOINT BN_Tail_02
					{
						OFFSET -11.365196 -0.343025 0.000012
						CHANNELS 3 Xrotation Yrotation Zrotation
						JOINT BN_Tail_03
						{
							OFFSET -15.076256 -0.454979 0.000017
							CHANNELS 3 Xrotation Yrotation Zrotation
							JOINT BN_Tail_04
							{
								OFFSET -17.395691 -0.525002 0.000016
								CHANNELS 3 Xrotation Yrotation Zrotation
								JOINT BN_Tail_05
								{
									OFFSET -16.699837 -0.504005 0.000016
									CHANNELS 3 Xrotation Yrotation Zrotation
									End Site
									{
										OFFSET 0.503998 -16.699829 0.000067
									}
								}
							}
						}
					}
				}
				JOINT Bip01_Spine
				{
					OFFSET 8.297798 5.916809 -0.000020
					CHANNELS 3 Xrotation Yrotation Zrotation
					JOINT Bip01_R_Thigh
					{
						OFFSET -8.297779 -5.916794 10.541781
						CHANNELS 3 Xrotation Yrotation Zrotation
						JOINT Bip01_R_Calf
						{
							OFFSET 5.631542 -22.906792 0.862690
							CHANNELS 3 Xrotation Yrotation Zrotation
							JOINT Bip01_R_HorseLink
							{
								OFFSET -16.984341 -19.231926 -3.555767
								CHANNELS 3 Xrotation Yrotation Zrotation
								JOINT Bip01_R_Foot
								{
									OFFSET 4.290367 -24.783146 0.578056
									CHANNELS 3 Xrotation Yrotation Zrotation
									JOINT Bip01_R_Toe0
									{
										OFFSET 3.561211 -5.815116 0.760802
										CHANNELS 3 Xrotation Yrotation Zrotation
										JOINT Bip01_R_Toe0Nub
										{
											OFFSET 16.135469 0.002017 1.534789
											CHANNELS 3 Xrotation Yrotation Zrotation
											End Site
											{
												OFFSET -0.000002 16.208284 -0.000056
											}
										}
									}
								}
							}
						}
					}
					JOINT Bip01_L_Thigh
					{
						OFFSET -8.297813 -5.916832 -10.541739
						CHANNELS 3 Xrotation Yrotation Zrotation
						JOINT Bip01_L_Calf
						{
							OFFSET 5.631535 -22.906792 -0.862625
							CHANNELS 3 Xrotation Yrotation Zrotation
							JOINT Bip01_L_HorseLink
							{
								OFFSET -16.984318 -19.231949 3.555875
								CHANNELS 3 Xrotation Yrotation Zrotation
								JOINT Bip01_L_Foot
								{
									OFFSET 4.290367 -24.783169 -0.577965
									CHANNELS 3 Xrotation Yrotation Zrotation
									JOINT Bip01_L_Toe0
									{
										OFFSET 3.561245 -5.815111 -0.760799
										CHANNELS 3 Xrotation Yrotation Zrotation
										JOINT Bip01_L_Toe0Nub
										{
											OFFSET 6.574303 -0.000005 -1.538561
											CHANNELS 3 Xrotation Yrotation Zrotation
											End Site
											{
												OFFSET 0.000004 -6.751935 0.000023
											}
										}
									}
								}
							}
						}
					}
					JOINT Bip01_Spine1
					{
						OFFSET 20.556803 -4.626213 -0.000025
						CHANNELS 3 Xrotation Yrotation Zrotation
						JOINT Saddle
						{
							OFFSET 17.608810 18.174690 -0.000143
							CHANNELS 3 Xrotation Yrotation Zrotation
							End Site
							{
								OFFSET -0.000063 -0.000061 -22.448387
							}
						}
						JOINT BN_center
						{
							OFFSET 10.743275 -13.417107 -0.172041
							CHANNELS 3 Xrotation Yrotation Zrotation
							End Site
							{
								OFFSET 22.434088 0.553078 -0.579614
							}
						}
						JOINT Bip01_Spine2
						{
							OFFSET 24.765072 -2.054115 -0.000032
							CHANNELS 3 Xrotation Yrotation Zrotation
							JOINT Handle
							{
								OFFSET 63.735676 16.430748 -16.052464
								CHANNELS 3 Xrotation Yrotation Zrotation
								JOINT IK_Chain01
								{
									OFFSET -4.713058 -6.020439 0.185448
									CHANNELS 3 Xrotation Yrotation Zrotation
									End Site
									{
										OFFSET -0.000023 -0.000023 -7.648071
									}
								}
							}
							JOINT BN_hair04_01
							{
								OFFSET 1.987491 16.256981 -2.049672
								CHANNELS 3 Xrotation Yrotation Zrotation
								JOINT BN_hair04_02
								{
									OFFSET -1.318762 -3.831451 -6.174704
									CHANNELS 3 Xrotation Yrotation Zrotation
									JOINT BN_hair04_03
									{
										OFFSET -0.827490 -5.886627 -5.656666
										CHANNELS 3 Xrotation Yrotation Zrotation
										End Site
										{
											OFFSET -2.658262 5.010620 -5.929780
										}
									}
								}
							}
							JOINT Bip01_Neck
							{
								OFFSET 25.574577 9.433014 -0.000084
								CHANNELS 3 Xrotation Yrotation Zrotation
								JOINT Bip01_R_Clavicle
								{
									OFFSET -16.535652 0.011192 6.705692
									CHANNELS 3 Xrotation Yrotation Zrotation
									JOINT Bip01_R_UpperArm
									{
										OFFSET 20.272621 -12.959984 2.510816
										CHANNELS 3 Xrotation Yrotation Zrotation
										JOINT Bip01_R_Forearm
										{
											OFFSET -13.633509 -15.503704 -0.653585
											CHANNELS 3 Xrotation Yrotation Zrotation
											JOINT Bip01_R_Hand
											{
												OFFSET 2.580030 -27.804676 -1.136415
												CHANNELS 3 Xrotation Yrotation Zrotation
												JOINT Bip01_R_Finger0
												{
													OFFSET -0.281744 -19.659061 -0.398649
													CHANNELS 3 Xrotation Yrotation Zrotation
													JOINT Bip01_Xtra02
													{
														OFFSET 4.152210 -5.712314 0.433813
														CHANNELS 3 Xrotation Yrotation Zrotation
														JOINT Bip01_Xtra02Nub
														{
															OFFSET 15.457960 0.041654 0.507982
															CHANNELS 3 Xrotation Yrotation Zrotation
															End Site
															{
																OFFSET -15.421730 -0.157725 -1.163459
															}
														}
													}
													JOINT Bip01_R_Finger0Nub
													{
														OFFSET 8.362326 -9.718440 -0.143142
														CHANNELS 3 Xrotation Yrotation Zrotation
														End Site
														{
															OFFSET -1.213036 -0.198171 9.872291
														}
													}
												}
											}
										}
									}
								}
								JOINT Bip01_L_Clavicle
								{
									OFFSET -16.535673 0.011162 -6.705583
									CHANNELS 3 Xrotation Yrotation Zrotation
									JOINT Bip01_L_UpperArm
									{
										OFFSET 20.272615 -12.959999 -2.510836
										CHANNELS 3 Xrotation Yrotation Zrotation
										JOINT Bip01_L_Forearm
										{
											OFFSET -13.633495 -15.503681 0.653678
											CHANNELS 3 Xrotation Yrotation Zrotation
											JOINT Bip01_L_Hand
											{
												OFFSET 2.579988 -27.804686 1.136487
												CHANNELS 3 Xrotation Yrotation Zrotation
												JOINT Bip01_L_Finger0
												{
													OFFSET -0.281765 -19.659058 0.398696
													CHANNELS 3 Xrotation Yrotation Zrotation
													JOINT Bip01_Xtra01
													{
														OFFSET 4.083549 -5.738758 -0.666714
														CHANNELS 3 Xrotation Yrotation Zrotation
														JOINT Bip01_Xtra01Nub
														{
															OFFSET 6.758158 -0.395525 -0.023239
															CHANNELS 3 Xrotation Yrotation Zrotation
															End Site
															{
																OFFSET 6.764923 -0.254147 -0.029908
															}
														}
													}
													JOINT Bip01_L_Finger0Nub
													{
														OFFSET -0.012636 -9.629153 0.045740
														CHANNELS 3 Xrotation Yrotation Zrotation
														End Site
														{
															OFFSET 0.988407 0.004791 8.293357
														}
													}
												}
											}
										}
									}
								}
								JOINT BN_hair03_01
								{
									OFFSET -5.894140 16.270622 -2.498433
									CHANNELS 3 Xrotation Yrotation Zrotation
									JOINT BN_hair03_02
									{
										OFFSET -0.189278 -7.800507 -6.219162
										CHANNELS 3 Xrotation Yrotation Zrotation
										JOINT BN_hair03_03
										{
											OFFSET 0.612345 -10.844475 -3.370718
											CHANNELS 3 Xrotation Yrotation Zrotation
											End Site
											{
												OFFSET -2.273296 2.862007 -10.769416
											}
										}
									}
								}
								JOINT Bip01_Neck1
								{
									OFFSET 9.383755 11.908699 -0.000007
									CHANNELS 3 Xrotation Yrotation Zrotation
									JOINT BN_hair02_01
									{
										OFFSET 9.126320 18.808022 -1.420810
										CHANNELS 3 Xrotation Yrotation Zrotation
										JOINT BN_hair02_02
										{
											OFFSET 0.393478 -5.181091 -5.248574
											CHANNELS 3 Xrotation Yrotation Zrotation
											JOINT BN_hair02_03
											{
												OFFSET 0.762280 -8.167076 -0.230047
												CHANNELS 3 Xrotation Yrotation Zrotation
												End Site
												{
													OFFSET -0.025837 -1.251419 -8.109770
												}
											}
										}
									}
									JOINT Bip01_Head
									{
										OFFSET 14.266129 10.475403 -0.000008
										CHANNELS 3 Xrotation Yrotation Zrotation
										JOINT BN_Reins_01
										{
											OFFSET 18.547455 -15.740112 -0.000035
											CHANNELS 3 Xrotation Yrotation Zrotation
											JOINT BN_Reins_02
											{
												OFFSET -5.372810 -5.884506 0.000028
												CHANNELS 3 Xrotation Yrotation Zrotation
												JOINT BN_Reins_03
												{
													OFFSET -6.395866 -15.947449 0.000070
													CHANNELS 3 Xrotation Yrotation Zrotation
													JOINT BN_Halter_R_01
													{
														OFFSET -1.234055 -3.096100 7.096737
														CHANNELS 3 Xrotation Yrotation Zrotation
														End Site
														{
															OFFSET 10.514435 -4.176861 -0.000004
														}
													}
													JOINT BN_Halter_L_01
													{
														OFFSET -1.234062 -3.096146 -7.096726
														CHANNELS 3 Xrotation Yrotation Zrotation
														End Site
														{
															OFFSET -10.514435 4.176865 -0.000000
														}
													}
													JOINT BN_Reins_04
													{
														OFFSET -6.737644 -16.971684 0.000074
														CHANNELS 3 Xrotation Yrotation Zrotation
														JOINT BN_Halter_R_02
														{
															OFFSET -4.688869 -11.781956 7.096771
															CHANNELS 3 Xrotation Yrotation Zrotation
															End Site
															{
																OFFSET 14.669624 -5.827511 -0.000006
															}
														}
														JOINT BN_Halter_L_02
														{
															OFFSET -4.688892 -11.782017 -7.096693
															CHANNELS 3 Xrotation Yrotation Zrotation
															End Site
															{
																OFFSET -14.669624 5.827507 -0.000002
															}
														}
														JOINT BN_Reins_05
														{
															OFFSET -6.822578 -16.971161 0.000074
															CHANNELS 3 Xrotation Yrotation Zrotation
															JOINT BN_Reins_06
															{
																OFFSET -6.140354 -15.095148 0.000066
																CHANNELS 3 Xrotation Yrotation Zrotation
																End Site
																{
																	OFFSET -15.095150 6.140352 -0.000002
																}
															}
														}
													}
												}
											}
										}
										JOINT BN_hair01_01
										{
											OFFSET 8.957344 8.870956 0.112121
											CHANNELS 3 Xrotation Yrotation Zrotation
											JOINT BN_hair01_02
											{
												OFFSET 6.002075 -2.962952 -3.121264
												CHANNELS 3 Xrotation Yrotation Zrotation
												End Site
												{
													OFFSET 5.917702 3.813591 -2.232396
												}
											}
										}
										JOINT BN_Eyebrow_R
										{
											OFFSET 11.795959 -0.430496 4.449781
											CHANNELS 3 Xrotation Yrotation Zrotation
											JOINT Bip01_Xtra06Nub
											{
												OFFSET 2.936661 -0.262573 3.246701
												CHANNELS 3 Xrotation Yrotation Zrotation
												End Site
												{
													OFFSET 2.768745 0.208199 3.394807
												}
											}
										}
										JOINT BN_Eyebrow_L
										{
											OFFSET 11.586395 -0.445618 -4.441728
											CHANNELS 3 Xrotation Yrotation Zrotation
											JOINT Bip01_Xtra05Nub
											{
												OFFSET 3.244698 -0.349442 -4.416700
												CHANNELS 3 Xrotation Yrotation Zrotation
												End Site
												{
													OFFSET 3.053162 0.072495 -4.564033
												}
											}
										}
										JOINT Bip01_R_Ear_01
										{
											OFFSET 7.142960 7.567184 4.311657
											CHANNELS 3 Xrotation Yrotation Zrotation
											JOINT Bip01_Xtra04Nub
											{
												OFFSET 9.464531 9.264214 1.682953
												CHANNELS 3 Xrotation Yrotation Zrotation
												End Site
												{
													OFFSET 8.448181 10.159340 1.910823
												}
											}
										}
										JOINT Bip01__L_Ear_01
										{
											OFFSET 7.214943 7.717056 -4.356771
											CHANNELS 3 Xrotation Yrotation Zrotation
											JOINT Bip01_Xtra03Nub
											{
												OFFSET 9.230225 8.944366 -2.322746
												CHANNELS 3 Xrotation Yrotation Zrotation
												End Site
												{
													OFFSET 8.170288 9.841324 -2.643566
												}
											}
										}
										JOINT Bip01_Jaw
										{
											OFFSET 9.196068 -4.110695 -0.000013
											CHANNELS 3 Xrotation Yrotation Zrotation
											JOINT Bip01_Ponytail1Nub
											{
												OFFSET 10.976463 -21.082108 -0.000053
												CHANNELS 3 Xrotation Yrotation Zrotation
												End Site
												{
													OFFSET 11.247093 -20.938980 0.000113
												}
											}
										}
										JOINT Bip01_HeadNub
										{
											OFFSET 29.954575 -18.249489 -0.000063
											CHANNELS 3 Xrotation Yrotation Zrotation
											End Site
											{
												OFFSET -9.198448 -13.366348 0.000168
											}
										}
									}
								}
							}
						}
					}
				}
			}
		}
	}
}
MOTION
Frames: 4
Frame Time: 0.033333
0.000000 0.000000 0.000000 0.000008 0.000000 -0.000000 -0.000000 0.000000 -0.000000 0.000102 0.000044 -35.625024 -0.731191 -2.605376 -1.546466 -0.892821 9.674400 -4.370761 -0.627085 1.171374 26.420890 0.429116 -13.937248 21.972742 3.972026 -16.254406 12.203373 0.029402 -0.991012 -0.052192 0.129440 2.454733 11.324139 12.246747 10.431807 -28.384012 8.108363 -2.810702 -44.457541 -10.101905 -7.563213 67.308482 8.183408 -19.936745 -98.257107 0.095339 0.037237 -0.460057 -0.000077 -0.000347 -0.000024 -11.074509 -8.540528 -30.508894 -9.205273 3.914266 -52.274122 8.479117 4.548817 50.088004 -5.524323 8.878020 -54.465066 -0.462768 -0.173830 -2.218640 0.008516 0.000079 0.038650 1.951164 -0.439296 -11.697229 -1.469351 0.207157 37.543238 1.161593 -0.149653 -1.006177 0.701677 0.333337 -11.615287 0.000079 -0.000112 -0.000059 -0.000052 -0.014931 0.015041 1.881442 1.572120 1.462623 6.612634 11.512001 -15.509085 4.975576 5.266143 -6.968501 -0.606980 -0.083296 10.293194 -0.049387 3.907530 14.514816 0.087420 -6.592484 37.146021 -0.001144 -0.057725 1.407586 0.906120 1.980605 11.720743 4.524492 5.342374 -25.711511 -1.353217 3.861790 5.945716 -0.793877 0.152329 -0.479416 -0.804179 0.123484 -0.482662 0.756241 -2.188991 3.097968 -1.100111 4.848748 45.855493 0.000721 0.124074 3.024975 -4.152716 -0.401455 13.583258 0.954366 -9.181177 -20.657154 -1.099089 6.839140 2.000559 0.028255 0.072122 2.451927 -0.000913 0.100618 2.451955 4.851763 -0.312056 0.401841 -1.389521 3.407426 -10.646853 -0.416210 1.957070 -6.728416 -0.400155 -0.832445 12.715507 1.084152 0.107255 -0.021826 3.664552 0.105899 -6.867854 5.157764 0.132987 -1.525941 -1.798547 0.282379 -1.840063 -0.000005 -0.000240 -21.499118 0.010397 0.666084 -12.962447 -0.000091 -0.000098 -31.739401 -0.000011 -0.000019 1.314182 0.000020 -0.000018 1.314015 -0.000147 -0.000135 -49.413680 -23.901962 -11.933091 -2.566580 34.949193 16.671901 -5.206571 -0.000082 -0.000108 -33.890138 0.000017 0.000041 -0.000005 2.392951 6.620293 -0.300158 2.392064 -0.588946 5.305379 0.000060 -0.000068 0.000035 0.024219 -0.030018 11.786605 0.000058 -0.000041 0.000030 0.023216 -0.032290 11.715995 0.885426 1.335100 -11.105651 0.039023 0.011717 11.754803 -1.290227 -1.929240 -11.270301 0.038941 0.011466 11.744877 -0.000005 0.000051 2.918487 -0.003492 -0.040863 11.750675 0.000056 -0.000026 11.750676 
0.000000 0.000000 0.000000 0.000008 0.000000 -0.000000 -0.000000 0.000000 -0.000000 0.000080 0.000052 -37.455733 -0.739819 -2.536975 -2.011021 -0.883754 9.660393 -4.425665 -0.633484 1.185392 26.381029 0.006854 -13.232030 18.227714 3.372040 -15.481997 8.528769 -0.352365 -0.434189 -3.817327 0.462183 2.404420 11.702891 10.552867 10.098397 -26.480524 7.694356 -2.464116 -41.743084 -8.387349 -4.427929 49.328378 9.703133 -16.189628 -84.865476 0.128780 0.050090 -0.620964 -0.000079 -0.000347 -0.000027 -9.858059 -9.313925 -24.423419 -8.644853 3.312921 -48.148677 7.873512 3.807557 45.287306 -6.553492 10.016013 -62.857309 -0.462768 -0.173829 -2.218637 0.008517 0.000077 0.038652 1.134638 -0.226977 -10.946506 -0.968295 0.148301 38.688449 1.160266 -0.148214 -1.006173 0.575352 0.270806 -9.409071 0.000079 -0.000112 -0.000059 -0.000052 -0.014931 0.015047 1.881437 1.572120 1.462622 6.612629 11.512000 -15.509082 4.975581 5.266141 -6.968502 -0.134078 0.005896 3.626727 -0.637050 3.120160 16.390705 -0.332012 -5.197961 24.913035 0.074553 -0.667662 16.436319 2.644534 2.070774 7.685635 1.602766 3.790195 -22.229764 -1.389817 3.822555 6.143796 -0.793904 0.152328 -0.479419 -0.804180 0.123485 -0.482662 0.404600 -1.710694 6.982601 -0.325995 3.606954 32.063384 -0.075013 0.669631 16.484352 -3.663449 -0.265028 9.140064 1.475403 -9.325955 -16.156070 -1.122831 6.898937 2.043895 0.028282 0.072123 2.451926 -0.000914 0.100619 2.451956 4.851769 -0.312082 0.401818 -1.389524 3.407429 -10.646850 -0.410394 1.946203 -6.693062 -0.326913 -0.583875 5.456683 1.084144 0.107247 -0.021852 3.664554 0.105905 -6.867844 5.157765 0.132994 -1.525937 -1.540555 -0.025314 6.098311 -0.000005 -0.000240 -21.499117 0.000982 0.424668 -18.689493 -0.000079 -0.000089 -28.110414 -0.000011 -0.000019 1.314189 0.000020 -0.000018 1.314018 -0.000126 -0.000127 -43.881978 -23.901962 -11.933094 -2.566576 34.949200 16.671901 -5.206569 -0.000071 -0.000099 -30.307749 0.000008 0.000045 0.000007 2.392949 6.620293 -0.300158 2.392059 -0.588942 5.305375 0.000061 -0.000068 0.000026 0.024242 -0.030018 11.786624 0.000061 -0.000041 0.000031 0.023233 -0.032287 11.715970 0.942837 1.315225 -11.222575 0.039036 0.011741 11.754808 -1.341076 -1.931185 -11.418791 0.038953 0.011491 11.744871 -0.000009 0.000044 2.137985 -0.003475 -0.040884 11.750675 0.000056 -0.000026 11.750680 
0.000000 0.000000 0.000000 0.000008 0.000000 -0.000000 -0.000000 0.000000 -0.000000 0.000104 0.000045 -39.683017 -0.752634 -2.423485 -2.765935 -0.874879 9.646619 -4.479511 -0.656067 1.235432 26.234692 -0.630039 -11.563822 9.622283 2.428478 -13.698294 0.099702 -0.942378 1.003209 -12.476684 0.805448 2.319797 12.361520 8.857515 9.736319 -24.650327 7.212521 -2.100161 -38.704756 -5.593220 -1.838936 30.103447 9.774849 -12.179862 -71.195556 0.207044 0.079738 -0.996820 -0.000079 -0.000347 -0.000017 -8.519356 -9.942893 -18.213219 -8.050121 2.759658 -44.067902 7.130589 3.046180 39.945975 -7.456500 11.438569 -71.933797 -0.462768 -0.173830 -2.218638 0.008515 0.000079 0.038646 0.283737 -0.015194 -9.859971 -0.475898 0.100454 39.811909 1.158962 -0.146816 -1.006152 0.442995 0.202607 -7.234856 0.000079 -0.000112 -0.000053 -0.000052 -0.014931 0.015042 1.881415 1.572120 1.462628 6.612636 11.512004 -15.509085 4.975584 5.266136 -6.968505 0.373063 0.036983 -3.293879 -1.163991 2.317054 18.792180 -0.802058 -3.750141 15.703416 0.177431 -0.974440 24.332969 4.209721 2.065726 7.909919 -1.263648 1.967274 -19.220770 -1.449070 3.758434 6.465383 -0.793931 0.152328 -0.479421 -0.804180 0.123484 -0.482661 -0.028778 -1.349782 11.537679 0.324183 2.508547 21.278498 -0.153113 0.913501 22.731317 -3.122603 -0.240077 8.816394 1.979355 -9.425353 -11.880688 -1.161796 6.996062 2.114312 0.028310 0.072123 2.451899 -0.000913 0.100617 2.451955 4.851754 -0.312103 0.401811 -1.389524 3.407431 -10.646854 -0.404679 1.935554 -6.658386 -0.217277 -0.337702 -2.090823 1.084116 0.107243 -0.021866 3.664552 0.105913 -6.867844 5.157764 0.133003 -1.525940 -1.290242 -0.201044 14.670999 -0.000005 -0.000240 -21.499117 -0.006218 0.155978 -25.057828 -0.000067 -0.000079 -24.335068 -0.000010 -0.000020 1.314182 0.000020 -0.000018 1.314018 -0.000104 -0.000116 -38.168511 -23.901962 -11.933091 -2.566578 34.949193 16.671899 -5.206569 -0.000059 -0.000089 -26.558581 0.000033 0.000035 -0.000048 2.392938 6.620292 -0.300175 2.392060 -0.588942 5.305375 0.000060 -0.000065 0.000025 0.024255 -0.030011 11.786645 0.000062 -0.000041 0.000018 0.023248 -0.032285 11.715946 1.035964 1.282706 -11.412424 0.039049 0.011765 11.754809 -1.423669 -1.934068 -11.659936 0.038964 0.011514 11.744865 -0.000013 0.000037 1.353596 -0.003457 -0.040905 11.750672 0.000056 -0.000026 11.750671 
0.000000 0.000000 0.000000 0.000008 0.000000 -0.000000 -0.000000 0.000000 -0.000000 0.000098 0.000032 -41.050926 -0.754860 -2.400735 -2.918377 -0.866951 9.584945 -4.532089 -0.701369 1.338187 25.928803 -0.770321 -9.545930 -0.717434 2.053531 -11.701327 -10.008876 -1.070647 2.907325 -22.883188 1.118171 2.320924 12.442686 7.264007 9.307289 -22.755258 6.834701 -1.841461 -36.399075 -2.677320 -0.473821 13.797057 8.610674 -8.840951 -59.408357 0.286251 0.109161 -1.376430 -0.000079 -0.000346 -0.000017 -7.239314 -10.337212 -12.350545 -7.421707 2.253057 -40.008222 6.512827 2.509291 35.832023 -7.986161 12.541805 -79.444539 -0.462769 -0.173830 -2.218636 0.008517 0.000079 0.038651 -0.481252 0.159475 -9.468761 0.022199 0.061857 40.946854 1.157646 -0.145391 -1.006158 0.334254 0.133580 -5.061666 0.000079 -0.000112 -0.000055 -0.000045 -0.014938 0.015044 1.881400 1.572103 1.462604 6.612629 11.512006 -15.509087 4.975582 5.266139 -6.968503 0.811649 0.018069 -9.501740 -1.444191 1.431753 20.064369 -1.116325 -2.162968 9.547889 0.255554 -1.143792 28.882626 5.443937 2.168622 8.356339 -3.843376 0.241889 -15.618143 -1.460965 3.745455 6.530320 -0.793985 0.152328 -0.479425 -0.804179 0.123485 -0.482663 -0.521793 -0.933388 14.612693 0.647316 1.436419 14.177565 -0.198178 1.023222 25.624090 -2.518801 -0.266844 8.558119 2.529103 -9.490780 -7.273583 -1.169871 7.015692 2.128680 0.028364 0.072123 2.451898 -0.000913 0.100618 2.451955 4.851718 -0.312112 0.401826 -1.389525 3.407428 -10.646846 -0.398901 1.924795 -6.623367 -0.093815 -0.131236 -8.837161 1.084109 0.107243 -0.021866 3.664554 0.105928 -6.867822 5.157761 0.133025 -1.525945 -1.117500 -0.243542 21.731435 -0.000005 -0.000240 -21.499117 -0.000397 -0.101982 -29.947668 -0.000058 -0.000070 -21.251374 -0.000011 -0.000019 1.314186 0.000020 -0.000018 1.314020 -0.000088 -0.000106 -33.523842 -23.901964 -11.933091 -2.566578 34.949197 16.671898 -5.206567 -0.000050 -0.000080 -23.477966 0.000033 0.000035 -0.000048 2.392933 6.620303 -0.300164 2.392057 -0.588943 5.305387 0.000065 -0.000064 0.000030 0.024285 -0.030004 11.786687 0.000059 -0.000039 0.000029 0.023279 -0.032270 11.715901 1.054770 1.276095 -11.450761 0.039075 0.011812 11.754820 -1.440352 -1.934616 -11.708633 0.038991 0.011563 11.744857 -0.000016 0.000030 0.600308 -0.003422 -0.040946 11.750674 0.000056 -0.000026 11.750677 
